<svg width="18" height="22" viewBox="0 0 18 22" fill="none" xmlns="http://www.w3.org/2000/svg">
<path fill-rule="evenodd" clip-rule="evenodd" d="M18 2.72727C18 1.22104 16.7789 0 15.2727 0H2.72727C1.22104 0 0 1.22104 0 2.72727V19.0909C0 20.5971 1.22104 21.8182 2.72727 21.8182H17.1818C17.6337 21.8182 18 21.4519 18 21C18 20.5481 17.6337 20.1818 17.1818 20.1818H2.72727C2.12479 20.1818 1.63636 19.6934 1.63636 19.0909H17.1818C17.6337 19.0909 18 18.7246 18 18.2727V2.72727ZM14.1818 4.36364C14.1818 3.76115 13.6934 3.27273 13.0909 3.27273H4.36364C3.76115 3.27273 3.27273 3.76115 3.27273 4.36364V6.54546C3.27273 7.14794 3.76115 7.63636 4.36364 7.63636H13.0909C13.6934 7.63636 14.1818 7.14794 14.1818 6.54546V4.36364ZM12.5455 4.90909H4.90909V6H12.5455V4.90909Z" fill="#3F3F3F"/>
</svg>
