<svg width="18" height="14" viewBox="0 0 18 14" fill="none" xmlns="http://www.w3.org/2000/svg">
<path d="M1.7473 0C0.782287 0 0 0.782287 0 1.7473V6.30085C0 10.2779 3.22398 13.5018 7.20097 13.5018C10.8117 13.5018 13.8017 10.8443 14.3218 7.37857H14.9859C16.6505 7.37857 18 6.02901 18 4.36436C18 2.69967 16.6505 1.35018 14.9859 1.35018H14.3566C14.1768 0.576492 13.483 0 12.6546 0H1.7473ZM14.4019 2.70036H14.9859C15.9049 2.70036 16.6498 3.44536 16.6498 4.36436C16.6498 5.28335 15.9049 6.02838 14.9859 6.02838H14.4019V2.70036Z" fill="#3F3F3F"/>
</svg>
