<svg width="18" height="18" viewBox="0 0 18 18" fill="none" xmlns="http://www.w3.org/2000/svg">
<path fill-rule="evenodd" clip-rule="evenodd" d="M15.25 0C16.7688 0 18 1.23122 18 2.75V15.25C18 16.7688 16.7688 18 15.25 18H2.75C1.23122 18 0 16.7688 0 15.25V2.75C0 1.23122 1.23122 0 2.75 0H15.25ZM6.75063 3C7.71713 3 8.50063 3.7835 8.50063 4.75V6.75C8.50063 7.7165 7.71713 8.5 6.75063 8.5H4.75063C3.78413 8.5 3.00063 7.7165 3.00063 6.75V4.75C3.00063 3.7835 3.78413 3 4.75063 3H6.75063ZM4.75063 4.5C4.61256 4.5 4.50063 4.61193 4.50063 4.75V6.75C4.50063 6.88807 4.61256 7 4.75063 7H6.75063C6.8887 7 7.00063 6.88807 7.00063 6.75V4.75C7.00063 4.61193 6.8887 4.5 6.75063 4.5H4.75063ZM14.9981 4.75C14.9981 3.7835 14.2146 3 13.2481 3H11.2481C10.2816 3 9.4981 3.7835 9.4981 4.75V6.75C9.4981 7.7165 10.2816 8.5 11.2481 8.5H13.2481C14.2146 8.5 14.9981 7.7165 14.9981 6.75V4.75ZM13.2481 4.5H11.2481C11.11 4.5 10.9981 4.61193 10.9981 4.75V6.75C10.9981 6.88807 11.11 7 11.2481 7H13.2481C13.3862 7 13.4981 6.88807 13.4981 6.75V4.75C13.4981 4.61193 13.3862 4.5 13.2481 4.5ZM13.2494 9.5C14.2159 9.5 14.9994 10.2835 14.9994 11.25V13.25C14.9994 14.2165 14.2159 15 13.2494 15H11.2494C10.2829 15 9.49937 14.2165 9.49937 13.25V11.25C9.49937 10.2835 10.2829 9.5 11.2494 9.5H13.2494ZM11.2494 11H13.2494C13.3874 11 13.4994 11.1119 13.4994 11.25V13.25C13.4994 13.3881 13.3874 13.5 13.2494 13.5H11.2494C11.1113 13.5 10.9994 13.3881 10.9994 13.25V11.25C10.9994 11.1119 11.1113 11 11.2494 11ZM8.5019 11.25C8.5019 10.2835 7.71839 9.5 6.7519 9.5H4.7519C3.7854 9.5 3.0019 10.2835 3.0019 11.25V13.25C3.0019 14.2165 3.7854 15 4.7519 15H6.7519C7.71839 15 8.5019 14.2165 8.5019 13.25V11.25ZM6.7519 11H4.7519C4.61383 11 4.5019 11.1119 4.5019 11.25V13.25C4.5019 13.3881 4.61383 13.5 4.7519 13.5H6.7519C6.88997 13.5 7.0019 13.3881 7.0019 13.25V11.25C7.0019 11.1119 6.88997 11 6.7519 11Z" fill="#3F3F3F"/>
</svg>
