<svg width="85" height="71" viewBox="0 0 85 71" fill="none" xmlns="http://www.w3.org/2000/svg">
<path d="M80.568 61.6222V28.4404L75.222 31.1134V61.6188L71.6572 70.785H84.1312L80.568 61.6222Z" fill="white"/>
<path d="M36.5798 45.6508L14.6328 34.6778V45.6295C14.6328 53.0107 26.6004 58.9945 41.3628 58.9945C56.1256 58.9945 68.0927 53.0107 68.0927 45.6295V34.6776L46.1441 45.6515C42.3873 47.1396 40.3369 47.1391 36.5798 45.6508Z" fill="white"/>
<path d="M43.754 40.8702L81.7402 21.8772C83.0554 21.2196 83.0554 20.1439 81.7402 19.4862L43.754 0.493191C42.4393 -0.164397 40.2875 -0.164397 38.9723 0.493191L0.986045 19.4862C-0.328682 20.1438 -0.328682 21.2195 0.986045 21.8772L38.9723 40.8702C40.2875 41.5278 42.4393 41.5278 43.754 40.8702Z" fill="white"/>
</svg>
