<svg width="25" height="25" viewBox="0 0 25 25" fill="none" xmlns="http://www.w3.org/2000/svg">
<path d="M22.5477 20.7352C22.5477 23.0869 20.6345 25 18.2829 25H6.71739C4.36576 25 2.45264 23.0869 2.45264 20.7352C2.45264 19.7654 3.23886 18.9792 4.20871 18.9792C5.17857 18.9792 5.96479 19.7654 5.96479 20.7352C5.96479 21.1502 6.30246 21.4878 6.71739 21.4878H18.2829C18.6978 21.4878 19.0355 21.1502 19.0355 20.7352C19.0355 19.7654 19.8217 18.9792 20.7916 18.9792C21.7614 18.9792 22.5477 19.7654 22.5477 20.7352ZM11.2586 17.2105C11.5882 17.5397 12.0348 17.7248 12.5004 17.7248C12.966 17.7248 13.4126 17.5397 13.7422 17.2105L18.9266 12.0256C19.6125 11.3397 19.6125 10.2279 18.9266 9.54202C18.2408 8.85664 17.1284 8.85614 16.4435 9.54202L14.257 11.7286V1.75608C14.257 0.78622 13.4708 0 12.5009 0C11.531 0 10.7448 0.78622 10.7448 1.75608V11.7291L8.55776 9.54202C7.87189 8.85664 6.76004 8.85664 6.07417 9.54202C5.38829 10.2279 5.38829 11.3397 6.07417 12.0256L11.2586 17.2105Z" fill="white"/>
</svg>
