<svg width="144" height="144" viewBox="0 0 144 144" fill="none" xmlns="http://www.w3.org/2000/svg">
<path d="M70.8539 2.87978H71.3895C84.3035 2.87978 96.3879 6.41066 106.739 12.5566L106.422 12.378C117.199 18.6795 125.925 27.4059 132.048 37.8487L132.227 38.1828C138.217 48.3723 141.754 60.6238 141.754 73.699C141.754 104.838 121.692 131.299 93.7902 140.849L93.289 140.999C92.9262 141.114 92.5115 141.177 92.0852 141.177C91.1521 141.177 90.2881 140.866 89.5911 140.348L89.6027 140.354C88.8654 139.691 88.4046 138.735 88.4046 137.67C88.4046 137.641 88.4046 137.612 88.4046 137.589V137.595C88.4046 137.41 88.4199 135.056 88.4507 130.533C88.4814 126.009 88.4967 121.874 88.4967 118.126C88.5371 117.694 88.5601 117.199 88.5601 116.692C88.5601 112.13 86.6996 108.006 83.6987 105.028C87.2583 104.676 90.4724 104.089 93.5943 103.271L93.1566 103.369C96.4571 102.447 99.337 101.22 102.01 99.6708L101.831 99.7687C104.757 98.1559 107.234 96.1054 109.273 93.6747L109.308 93.6343C111.45 90.8926 113.126 87.667 114.146 84.1591L114.198 83.9576C115.402 80.0235 116.093 75.5019 116.093 70.819C116.093 70.5598 116.093 70.2948 116.087 70.0356V70.076C116.087 69.9492 116.093 69.8052 116.093 69.6612C116.093 62.4727 113.317 55.9352 108.783 51.0564L108.801 51.0737C109.768 48.5393 110.327 45.6132 110.327 42.5547C110.327 38.8164 109.492 35.2798 108 32.106L108.063 32.2558C107.401 32.1291 106.646 32.0542 105.869 32.0542C103.945 32.0542 102.131 32.5035 100.518 33.2983L100.587 33.2695C97.3153 34.4791 94.5159 35.85 91.8779 37.4513L92.0967 37.3246L88.5889 39.5364C83.2782 38.0158 77.1783 37.1403 70.8769 37.1403C64.5755 37.1403 58.4756 38.0158 52.6926 39.6516L53.1591 39.5364C52.1761 38.8606 50.8686 38.0292 49.2366 37.0423C47.0881 35.8097 44.5479 34.6174 41.9099 33.6151L41.5297 33.4884C39.842 32.6014 37.8433 32.083 35.7179 32.083C35.0036 32.083 34.3009 32.1406 33.6212 32.2558L33.6961 32.2443C32.2676 35.2625 31.4324 38.8049 31.4324 42.5431C31.4324 45.6017 31.9911 48.5336 33.0164 51.235L32.9588 51.0679C28.4372 55.9294 25.6667 62.467 25.6667 69.6555C25.6667 69.7995 25.6667 69.9492 25.6724 70.0932V70.0702C25.6667 70.2948 25.6667 70.554 25.6667 70.819C25.6667 75.4788 26.3579 79.9831 27.6481 84.2225L27.5617 83.8942C28.6503 87.5979 30.3035 90.8177 32.4577 93.6459L32.4059 93.571C34.4449 96.0766 36.9102 98.1387 39.7038 99.6881L39.8305 99.7515C42.3188 101.203 45.2046 102.43 48.2401 103.288L48.5051 103.351C51.1892 104.071 54.4033 104.659 57.6923 104.987L57.9572 105.01C55.4747 107.476 53.8215 110.77 53.4414 114.445L53.4356 114.514C52.2433 115.096 50.8551 115.568 49.4094 115.874L49.2884 115.897C47.8139 116.191 46.1262 116.358 44.3924 116.358C44.2657 116.358 44.139 116.358 44.0123 116.358H44.0295C41.7601 116.311 39.675 115.574 37.9527 114.353L37.9873 114.376C35.8503 112.884 34.1223 110.949 32.9127 108.697L32.8724 108.61C31.7319 106.675 30.2286 105.074 28.4487 103.847L28.3969 103.812C27.1009 102.839 25.5745 102.078 23.9271 101.623L23.835 101.6L21.9918 101.324C21.8593 101.312 21.7038 101.307 21.5483 101.307C20.7419 101.307 19.9758 101.468 19.2788 101.75L19.3191 101.733C18.8276 102.009 18.674 102.363 18.8583 102.793C19.083 103.288 19.3595 103.714 19.6935 104.089L19.6878 104.083C20.0391 104.498 20.4366 104.861 20.8686 105.177L20.8859 105.189L21.531 105.65C23.1611 106.502 24.5031 107.689 25.5227 109.123L25.5457 109.158C26.6459 110.523 27.6135 112.066 28.3911 113.719L28.4487 113.858L29.3703 115.977C30.1479 118.293 31.5591 120.228 33.4023 121.628L33.4311 121.651C35.1591 122.999 37.2443 123.966 39.5195 124.404L39.6116 124.416C41.5124 124.784 43.7243 125.015 45.9822 125.061H46.0225C46.2817 125.072 46.5812 125.072 46.8865 125.072C48.3899 125.072 49.8644 124.951 51.3044 124.715L51.1489 124.738L53.2686 124.37C53.2686 126.708 53.2839 129.431 53.3147 132.537C53.3454 135.644 53.3607 137.32 53.3607 137.566V137.646C53.3607 138.712 52.8999 139.668 52.1627 140.331H52.1569C51.4715 140.843 50.6132 141.154 49.6743 141.154C49.2423 141.154 48.8276 141.091 48.4417 140.97L48.4705 140.976C20.0795 131.247 0.034668 104.786 0.034668 73.6414C0.034668 60.5777 3.55979 48.3377 9.71723 37.8199L9.53291 38.154C15.8343 27.3771 24.5607 18.6507 35.0036 12.5278L35.3377 12.3492C45.3543 6.39338 57.4273 2.87402 70.3182 2.87402H70.8827H70.8539V2.87978ZM26.8475 104.636C27.0318 104.206 26.8167 103.837 26.2023 103.53C25.5879 103.346 25.1886 103.407 25.0043 103.714C24.8199 104.144 25.035 104.513 25.6494 104.82C26.2023 105.189 26.6017 105.127 26.8475 104.636ZM29.7102 107.775C30.1403 107.468 30.0788 106.976 29.5259 106.301C28.9115 105.748 28.4199 105.655 28.0513 106.024C27.6212 106.331 27.6827 106.823 28.2356 107.499C28.8462 108.102 29.3377 108.192 29.7102 107.769V107.775ZM32.475 111.922C33.0279 111.492 33.0279 110.909 32.475 110.171C31.9835 109.373 31.4612 109.188 30.9083 109.618C30.3553 109.926 30.3553 110.479 30.9083 111.277C31.4612 112.076 31.9835 112.291 32.475 111.922ZM36.3457 115.799C36.8372 115.307 36.7143 114.724 35.9771 114.048C35.2398 113.311 34.6254 113.218 34.1339 113.771C33.5809 114.263 33.7038 114.847 34.5025 115.522C35.2398 116.26 35.8542 116.344 36.3457 115.776V115.799ZM41.6046 118.103C41.7889 117.427 41.3895 116.935 40.4065 116.628C39.4849 116.382 38.9012 116.598 38.6555 117.273C38.4097 117.949 38.8091 118.41 39.8535 118.656C40.7751 119.028 41.3588 118.844 41.6046 118.103ZM47.4164 118.564C47.4164 117.765 46.8942 117.427 45.8497 117.55C44.8667 117.55 44.3751 117.888 44.3751 118.564C44.3751 119.362 44.8974 119.7 45.9419 119.577C46.9249 119.581 47.4164 119.245 47.4164 118.569V118.564ZM52.7675 117.642C52.6446 116.966 52.0916 116.69 51.1086 116.813C50.1255 116.997 49.6955 117.458 49.8183 118.195C49.9412 118.932 50.4942 119.178 51.4772 118.932C52.4603 118.687 52.8923 118.256 52.7732 117.642H52.7675Z" fill="white"/>
</svg>
