<svg width="18" height="21" viewBox="0 0 18 21" fill="none" xmlns="http://www.w3.org/2000/svg">
<path d="M7.73271 0.462594C8.47314 -0.154198 9.52686 -0.154198 10.2673 0.462594L17.2423 6.27295C17.7213 6.67195 18 7.2751 18 7.91273V18.453C18 19.6141 17.0933 20.5554 15.975 20.5554H13.275C12.1567 20.5554 11.25 19.6141 11.25 18.453V12.8467C11.25 12.4597 10.9478 12.1459 10.575 12.1459H7.425C7.05222 12.1459 6.75 12.4597 6.75 12.8467V18.453C6.75 19.6141 5.84334 20.5554 4.725 20.5554H2.025C0.906624 20.5554 0 19.6141 0 18.453V7.91273C0 7.2751 0.278703 6.67195 0.757719 6.27295L7.73271 0.462594Z" fill="#3F3F3F"/>
</svg>
