<svg xmlns="http://www.w3.org/2000/svg" fill="none" viewBox="23 19 102 102">
<g filter="url(#filter0_bd_220_10)">
<rect x="23" y="19" width="102" height="102" rx="16" fill="url(#paint0_linear_220_10)" shape-rendering="crispEdges"/>
<rect x="24.5" y="20.5" width="99" height="99" rx="14.5" stroke="url(#paint1_linear_220_10)" stroke-width="3" shape-rendering="crispEdges"/>
</g>
<path d="M40.875 102.125V36.875H106.125V102.125H40.875Z" fill="#FFD600"/>
<path d="M83.5376 85.7164C84.7918 87.7537 86.1548 89.7057 89.0421 89.7057C91.4673 89.7057 92.7396 88.5004 92.7396 86.8329C92.7396 84.8374 91.4238 84.1287 88.7558 82.9669L87.2931 82.3434C83.0718 80.5526 80.2642 78.3088 80.2642 73.5691C80.2642 69.2009 83.6083 65.8768 88.8337 65.8768C92.5548 65.8768 95.2282 67.1655 97.1567 70.5404L92.6001 73.4531C91.5978 71.6623 90.5139 70.9573 88.8337 70.9573C87.1191 70.9573 86.0334 72.0393 86.0334 73.4531C86.0334 75.2003 87.1209 75.9072 89.6312 76.9892L91.0939 77.6127C96.0692 79.7316 98.875 81.8957 98.875 86.7604C98.875 92.0022 94.7352 94.875 89.1781 94.875C83.7424 94.875 80.6557 92.1472 78.9375 88.7705L83.5376 85.7164ZM62.538 85.8651C63.4551 87.5072 64.8489 88.7705 66.8535 88.7705C68.7711 88.7705 69.875 88.0129 69.875 85.0676V65.875H75.916V85.9956C75.916 92.0983 72.3762 94.875 67.207 94.875C62.5361 94.875 59.1649 91.7104 57.791 88.7705L62.538 85.8651Z" fill="#000001"/>
<defs>
<filter id="filter0_bd_220_10" x="-17" y="-21" width="182" height="182" filterUnits="userSpaceOnUse" color-interpolation-filters="sRGB">
<feFlood flood-opacity="0" result="BackgroundImageFix"/>
<feGaussianBlur in="BackgroundImage" stdDeviation="20"/>
<feComposite in2="SourceAlpha" operator="in" result="effect1_backgroundBlur_220_10"/>
<feColorMatrix in="SourceAlpha" type="matrix" values="0 0 0 0 0 0 0 0 0 0 0 0 0 0 0 0 0 0 127 0" result="hardAlpha"/>
<feMorphology radius="1" operator="erode" in="SourceAlpha" result="effect2_dropShadow_220_10"/>
<feOffset dy="4"/>
<feGaussianBlur stdDeviation="12"/>
<feComposite in2="hardAlpha" operator="out"/>
<feColorMatrix type="matrix" values="0 0 0 0 0 0 0 0 0 0 0 0 0 0 0 0 0 0 0.2 0"/>
<feBlend mode="normal" in2="effect1_backgroundBlur_220_10" result="effect2_dropShadow_220_10"/>
<feBlend mode="normal" in="SourceGraphic" in2="effect2_dropShadow_220_10" result="shape"/>
</filter>
<linearGradient id="paint0_linear_220_10" x1="30.6053" y1="23.9211" x2="118.162" y2="121" gradientUnits="userSpaceOnUse">
<stop stop-color="white" stop-opacity="0.4"/>
<stop offset="1" stop-color="#D9D9D9" stop-opacity="0"/>
</linearGradient>
<linearGradient id="paint1_linear_220_10" x1="58.6617" y1="19" x2="97.5188" y2="121" gradientUnits="userSpaceOnUse">
<stop stop-color="white"/>
<stop offset="1" stop-color="#F72585"/>
</linearGradient>
</defs>
</svg>