<svg width="144" height="144" viewBox="0 0 144 144" fill="none" xmlns="http://www.w3.org/2000/svg">
<g clip-path="url(#clip0_172_205)">
<path d="M107.8 0.0571289H36.0856C16.2157 0.0571289 0 16.2728 0 36.1428V107.971C0 127.727 16.2157 143.943 36.0856 143.943H107.914C127.784 143.943 144 127.727 144 107.857V36.1428C143.886 16.2728 127.67 0.0571289 107.8 0.0571289ZM47.9619 116.536H27.4068V57.1547H47.9619V116.536ZM37.5702 48.0191C31.7462 48.0191 27.0642 43.3371 27.0642 37.5131C27.0642 31.6892 31.7462 27.0072 37.5702 27.0072C43.3941 27.0072 48.0761 31.6892 48.0761 37.5131C47.9619 43.3371 43.2799 48.0191 37.5702 48.0191ZM116.593 116.536H116.479H99.3497V87.7589C99.3497 80.793 98.4362 71.8858 88.958 71.8858C79.2514 71.8858 77.6527 79.4227 77.6527 87.3022V116.536H60.5234V57.1547H76.5107V65.1483H76.9675C79.4798 60.5805 85.3037 57.0405 94.4393 57.0405C113.282 57.0405 116.593 67.889 116.593 83.9905V116.536Z" fill="white"/>
</g>
<defs>
<clipPath id="clip0_172_205">
<rect width="144" height="144" fill="white"/>
</clipPath>
</defs>
</svg>
