<svg width="81" height="71" viewBox="0 0 81 71" fill="none" xmlns="http://www.w3.org/2000/svg">
<path d="M50.625 48.1786C50.625 49.5796 49.4923 50.7143 48.0938 50.7143H32.9062C31.5077 50.7143 30.375 49.5796 30.375 48.1786V40.5714H0V63.3929C0 67.45 3.54375 71 7.59375 71H73.4062C77.4563 71 81 67.45 81 63.3929V40.5714H50.625V48.1786ZM73.4062 15.2143H60.75V7.60714C60.75 3.55 57.2063 0 53.1562 0H27.8438C23.7937 0 20.25 3.55 20.25 7.60714V15.2143H7.59375C3.54375 15.2143 0 18.7643 0 22.8214V35.5H81V22.8214C81 18.7643 77.4563 15.2143 73.4062 15.2143ZM50.625 15.2143H30.375V10.1429H50.625V15.2143Z" fill="white"/>
</svg>
