<svg width="18" height="23" viewBox="0 0 18 23" fill="none" xmlns="http://www.w3.org/2000/svg">
<path d="M15.6095 13.5C16.8906 13.5 17.9368 14.5074 17.9972 15.774L18 15.8899V16.3125C18 18.425 16.9078 20.0064 15.2324 21.0264C13.5849 22.0294 11.3703 22.5 9 22.5C6.62968 22.5 4.41512 22.0294 2.76761 21.0264C1.14296 20.0373 0.0667287 18.5203 0.00299442 16.5031L0 16.3125V15.89C0 14.6083 1.00853 13.5631 2.27477 13.5028L2.39057 13.5H15.6095ZM9 0C12.1066 0 14.625 2.5184 14.625 5.625C14.625 8.73158 12.1066 11.25 9 11.25C5.89342 11.25 3.375 8.73158 3.375 5.625C3.375 2.5184 5.89342 0 9 0Z" fill="#3F3F3F"/>
</svg>
