<svg xmlns="http://www.w3.org/2000/svg" fill="none" viewBox="23 19 132 132">
<g filter="url(#filter0_f_220_24)">
<g filter="url(#filter1_bd_220_24)">
<rect x="23" y="19" width="132" height="132" rx="16" fill="url(#paint0_linear_220_24)" shape-rendering="crispEdges"/>
<rect x="24.5" y="20.5" width="129" height="129" rx="14.5" stroke="url(#paint1_linear_220_24)" stroke-width="3" shape-rendering="crispEdges"/>
</g>
<path d="M88.4997 104.708C62.4309 104.708 42.0205 95.8167 42.0205 84.5C42.0205 73.1833 62.4309 64.2917 88.4997 64.2917C114.568 64.2917 134.979 73.1833 134.979 84.5C134.979 95.8167 114.568 104.708 88.4997 104.708ZM88.4997 68.3333C63.0372 68.3333 46.0622 76.6187 46.0622 84.5C46.0622 92.3812 63.0372 100.667 88.4997 100.667C113.962 100.667 130.937 92.3812 130.937 84.5C130.937 76.6187 113.962 68.3333 88.4997 68.3333Z" fill="#80DEEA"/>
<path d="M70.5146 126.129C68.4937 126.129 66.8771 125.725 65.2604 124.715C55.3583 119.056 57.9854 97.0292 70.9187 74.3958C76.9812 63.8875 84.4583 54.9958 91.7333 49.3375C99.6146 43.275 106.687 41.4563 111.537 44.2854C116.59 47.1146 118.408 54.1875 117.196 64.0896C115.983 73.3854 111.942 84.2979 105.879 94.8063C99.8166 105.315 92.3396 114.206 85.0646 119.865C79.8104 123.906 74.7583 126.129 70.5146 126.129ZM106.485 46.9125C103.252 46.9125 99.0083 48.7313 94.3604 52.3688C87.4896 57.825 80.4167 66.3125 74.5562 76.4167C61.825 98.4437 60.6125 117.44 67.2812 121.279C70.7167 123.3 76.375 121.481 82.6396 116.631C89.5104 111.175 96.5833 102.687 102.444 92.5833C108.304 82.4792 112.144 72.1729 113.356 63.4833C114.367 55.4 113.154 49.7417 109.719 47.7208C108.708 47.3167 107.698 46.9125 106.485 46.9125Z" fill="#80DEEA"/>
<path d="M106.687 126.129C96.5831 126.129 82.0331 113.802 71.1206 94.6042C57.9852 71.9708 55.3581 49.9437 65.2602 44.2854C75.1623 38.6271 92.9456 51.7625 106.081 74.3958C112.144 84.9042 116.185 95.8167 117.398 105.112C118.812 115.015 116.791 121.885 111.739 124.917C110.123 125.725 108.506 126.129 106.687 126.129ZM67.281 47.7208C60.6123 51.5604 61.8248 70.5562 74.556 92.5833C87.2873 114.61 103.05 125.119 109.719 121.279C113.154 119.258 114.366 113.6 113.356 105.517C112.144 96.8271 108.304 86.5208 102.444 76.4167C89.7123 54.3896 73.9498 43.8812 67.281 47.7208Z" fill="#80DEEA"/>
<path d="M88.5003 92.5833C92.9646 92.5833 96.5837 88.9643 96.5837 84.5C96.5837 80.0357 92.9646 76.4167 88.5003 76.4167C84.036 76.4167 80.417 80.0357 80.417 84.5C80.417 88.9643 84.036 92.5833 88.5003 92.5833Z" fill="#80DEEA"/>
</g>
<defs>
<filter id="filter0_f_220_24" x="19" y="15" width="140" height="140" filterUnits="userSpaceOnUse" color-interpolation-filters="sRGB">
<feFlood flood-opacity="0" result="BackgroundImageFix"/>
<feBlend mode="normal" in="SourceGraphic" in2="BackgroundImageFix" result="shape"/>
<feGaussianBlur stdDeviation="2" result="effect1_foregroundBlur_220_24"/>
</filter>
<filter id="filter1_bd_220_24" x="-17" y="-21" width="212" height="212" filterUnits="userSpaceOnUse" color-interpolation-filters="sRGB">
<feFlood flood-opacity="0" result="BackgroundImageFix"/>
<feGaussianBlur in="BackgroundImage" stdDeviation="20"/>
<feComposite in2="SourceAlpha" operator="in" result="effect1_backgroundBlur_220_24"/>
<feColorMatrix in="SourceAlpha" type="matrix" values="0 0 0 0 0 0 0 0 0 0 0 0 0 0 0 0 0 0 127 0" result="hardAlpha"/>
<feMorphology radius="1" operator="erode" in="SourceAlpha" result="effect2_dropShadow_220_24"/>
<feOffset dy="4"/>
<feGaussianBlur stdDeviation="12"/>
<feComposite in2="hardAlpha" operator="out"/>
<feColorMatrix type="matrix" values="0 0 0 0 0 0 0 0 0 0 0 0 0 0 0 0 0 0 0.2 0"/>
<feBlend mode="normal" in2="effect1_backgroundBlur_220_24" result="effect2_dropShadow_220_24"/>
<feBlend mode="normal" in="SourceGraphic" in2="effect2_dropShadow_220_24" result="shape"/>
</filter>
<linearGradient id="paint0_linear_220_24" x1="32.8421" y1="25.3684" x2="146.15" y2="151" gradientUnits="userSpaceOnUse">
<stop stop-color="white" stop-opacity="0.4"/>
<stop offset="1" stop-color="#D9D9D9" stop-opacity="0"/>
</linearGradient>
<linearGradient id="paint1_linear_220_24" x1="69.1504" y1="19" x2="119.436" y2="151" gradientUnits="userSpaceOnUse">
<stop stop-color="white"/>
<stop offset="1" stop-color="#F72585"/>
</linearGradient>
</defs>
</svg>