<svg width="31" height="31" viewBox="0 0 31 31" fill="none" xmlns="http://www.w3.org/2000/svg">
<path d="M15.5008 9.6875C12.2977 9.6875 9.68797 12.2971 9.68797 15.5C9.68797 18.7029 12.2977 21.3125 15.5008 21.3125C18.7038 21.3125 21.3135 18.7029 21.3135 15.5C21.3135 12.2971 18.7038 9.6875 15.5008 9.6875ZM30.4202 14.5615L24.6862 11.6977L26.7146 5.61875C26.9871 4.79531 26.206 4.01426 25.3885 4.29277L19.3093 6.32109L16.4393 0.58125C16.0518 -0.19375 14.9497 -0.19375 14.5622 0.58125L11.6982 6.31504L5.61297 4.28672C4.78949 4.01426 4.0084 4.79531 4.28693 5.6127L6.31535 11.6916L0.581278 14.5615C-0.193759 14.949 -0.193759 16.051 0.581278 16.4385L6.31535 19.3023L4.28693 25.3873C4.01445 26.2107 4.79555 26.9918 5.61297 26.7133L11.6922 24.685L14.5562 30.4187C14.9437 31.1938 16.0457 31.1938 16.4332 30.4187L19.2972 24.685L25.3764 26.7133C26.1999 26.9857 26.981 26.2047 26.7025 25.3873L24.674 19.3084L30.4081 16.4445C31.1953 16.051 31.1953 14.949 30.4202 14.5615ZM20.9805 20.9795C17.9591 24.0008 13.0424 24.0008 10.021 20.9795C6.99956 17.9582 6.99956 13.0418 10.021 10.0205C13.0424 6.99922 17.9591 6.99922 20.9805 10.0205C24.0019 13.0418 24.0019 17.9582 20.9805 20.9795Z" fill="white"/>
</svg>
